# AST/ASF file generated using VICON BodyLanguage
# -----------------------------------------------
:version 1.10
:name VICON
:units
  mass 1.0
  length 0.45
  angle deg
:documentation
   .ast/.asf automatically generated from VICON data using
   VICON BodyBuilder and BodyLanguage model FoxedUp or BRILLIANT.MOD
:root
   order TX TY TZ RX RY RZ
   axis XYZ
   position 0 0 0  
   orientation 0 0 0 
:bonedata
  begin
     id 1 
     name lhipjoint
     direction 0.597014 -0.743513 0.301268 
     length 2.48253 
     axis 0 0 0  XYZ
  end
  begin
     id 2 
     name lfemur
     direction 0.34202 -0.939693 0  
     length 7.51389  
     axis 0 0 20  XYZ
    dof rx ry rz
    limits (-160.0 20.0)
           (-70.0 70.0)
           (-60.0 70.0)
  end
  begin
     id 3 
     name ltibia
     direction 0.34202 -0.939693 0   
     length 7.54147   
     axis 0 0 20   XYZ
    dof rx
    limits (-10.0 170.0)
  end
  begin
     id 4 
     name lfoot
     direction 0.10378 -0.285133 0.952853   
     length 2.2132   
     axis -90 7.62852e-016 20   XYZ
    dof rx rz
    limits (-45.0 90.0)
           (-70.0 20.0)
  end
  begin
     id 5 
     name ltoes
     direction 1.5354e-011 -4.2171e-011 1   
     length 1.10362   
     axis -90 7.62852e-016 20   XYZ
    dof rx
    limits (-90.0 20.0)
  end
  begin
     id 6 
     name rhipjoint
     direction -0.591912 -0.747009 0.302685   
     length 2.47092  
     axis 0 0 0  XYZ 
  end
  begin
     id 7 
     name rfemur
     direction -0.34202 -0.939693 0   
     length 7.69991   
     axis 0 0 -20   XYZ
    dof rx ry rz
    limits (-160.0 20.0)
           (-70.0 70.0)
           (-70.0 60.0)
  end
  begin
     id 8 
     name rtibia
     direction -0.34202 -0.939693 0   
     length 7.40774   
     axis 0 0 -20   XYZ
    dof rx
    limits (-10.0 170.0)
 end
 begin
     id 9 
     name rfoot
     direction -0.0916245 -0.251736 0.963449   
     length 2.08235  
     axis -90 -7.62852e-016 -20   XYZ
    dof rx rz
    limits (-45.0 90.0)
           (-20.0 70.0)
  end
  begin
     id 10 
     name rtoes
     direction -1.53527e-011 -4.21878e-011 1   
     length 1.04369   
     axis -90 -7.62852e-016 -20   XYZ
    dof rx
    limits (-90.0 20.0)
  end
  begin
     id 11 
     name lowerback
     direction -0.0122523 0.991496 -0.12956   
     length 2.10814   
     axis 0 0 0   XYZ
    dof rx ry rz
    limits (-20.0 45.0)
           (-30.0 30.0)
           (-30.0 30.0)
  end
  begin
     id 12 
     name upperback
     direction 0.012378 0.999784 -0.0167122   
     length 2.11728   
     axis 0 0 0   XYZ
    dof rx ry rz
    limits (-20.0 45.0)
           (-30.0 30.0)
           (-30.0 30.0)
  end
  begin
     id 13 
     name thorax
     direction 0.0187236 0.998893 0.0431542   
     length 2.15267   
     axis 0 0 0   XYZ
    dof rx ry rz
    limits (-20.0 45.0)
           (-30.0 30.0)
           (-30.0 30.0)
  end
  begin
     id 14 
     name lowerneck
     direction 0.0165467 0.987304 0.157979   
     length 1.72129   
     axis 0 0 0   XYZ
    dof rx ry rz
    limits (-20.0 45.0)
           (-30.0 30.0)
           (-30.0 30.0)
  end
  begin
     id 15 
     name upperneck
     direction -0.0560236 0.986819 -0.151818   
     length 1.75382   
     axis 0 0 0   XYZ
    dof rx ry rz
    limits (-20.0 45.0)
           (-30.0 30.0)
           (-30.0 30.0)
  end
  begin
     id 16
     name head
     direction -0.0173602 0.99745 -0.0692312  
     length 1.76328  
     axis 0 0 0   XYZ
    dof rx ry rz
    limits (-20.0 45.0)
           (-30.0 30.0)
           (-30.0 30.0)
  end
  begin
     id 17 
     name lclavicle
     direction 0.957734 0.271724 -0.094399  
     length 3.5782  
     axis 0 0 0   XYZ
    dof ry rz
    limits (-20.0 10.0)
           (0.0 20.0)
  end
  begin
     id 18 
     name lhumerus
     direction 1 -4.48963e-011 1.21581e-027   
     length 5.25525   
     axis 180 -30 -90   XYZ
    dof rx ry rz
    limits (-60.0 90.0)
           (-90.0 90.0)
           (-90.0 90.0)
  end
  begin
     id 19
     name lradius
     direction 1 -4.48975e-011 3.71216e-028   
     length 3.35106   
     axis 180 -30 -90   XYZ
    dof rx
    limits (-10.0 170.0)
  end
  begin
     id 20
     name lwrist
     direction 1 -4.48957e-011 4.76535e-027   
     length 1.67553   
     axis -3.27501e-015 90 90   XYZ
    dof ry
    limits (-180.0 0.0)
 end
  begin
     id 21 
     name lhand
     direction 1 -4.49008e-011 9.52727e-027   
     length 0.574153   
     axis -6.08097e-015 90 90   XYZ
    dof rx rz
    limits (-90.0 90.0)
           (-45.0 45.0)
  end
  begin
     id 22 
     name lfingers
     direction 1 -4.48996e-011 1.90562e-026   
     length 0.462897   
     axis -1.21618e-014 90 90   XYZ
    dof rx
    limits (0.0 90.0)
  end
  begin
     id 23
     name lthumb
     direction 0.707107 -6.34908e-011 0.707107   
     length 0.66463   
     axis -90 45 -1.62303e-014   XYZ
    dof rx rz
    limits (-45.0 45.0)
           (-45.0 45.0)
  end
  begin
     id 24 
     name rclavicle
     direction -0.950439 0.29623 -0.0944132   
     length 3.45861  
     axis 0 0 0   XYZ 
    dof ry rz
    limits (-10.0 20.0)
           (-20.0 0.0)
  end
  begin
     id 25 
     name rhumerus
     direction -1 -4.48986e-011 1.25473e-027  
     length 5.33104   
     axis 180 30 90   XYZ
    dof rx ry rz
    limits (-90.0 60.0)
           (-90.0 90.0)
           (-90.0 90.0)
  end
  begin
     id 26 
     name rradius
     direction -1 -4.4894e-011 1.66273e-027   
     length 3.39883   
     axis 180 30 90   XYZ
    dof rx
    limits (-10.0 170.0)
  end
  begin
     id 27 
     name rwrist
     direction -1 -4.48946e-011 4.76572e-027   
     length 1.69941   
     axis -3.27501e-015 -90 -90   XYZ
    dof ry
    limits (-180.0 0.0)
  end
  begin
     id 28
     name rhand
     direction -1 -4.49028e-011 9.52595e-027   
     length 0.913886   
     axis -6.08097e-015 -90 -90   XYZ
    dof rx rz
    limits (-90.0 90.0)
           (-45.0 45.0)
  end
  begin
     id 29
     name rfingers
     direction -1 -4.48945e-011 1.9063e-026   
     length 0.736798   
     axis -1.21618e-014 -90 -90   XYZ
    dof rx
    limits (0.0 90.0)
  end
  begin
     id 30
     name rthumb
     direction -0.707107 -6.34966e-011 0.707107   
     length 1.0579   
     axis -90 -45 1.62303e-014   XYZ
    dof rx rz
    limits (-45.0 45.0)
           (-45.0 45.0)
  end
:hierarchy
  begin
    root lhipjoint rhipjoint lowerback
    lhipjoint lfemur
    lfemur ltibia
    ltibia lfoot
    lfoot ltoes
    rhipjoint rfemur
    rfemur rtibia
    rtibia rfoot
    rfoot rtoes
    lowerback upperback
    upperback thorax
    thorax lowerneck lclavicle rclavicle
    lowerneck upperneck
    upperneck head
    lclavicle lhumerus
    lhumerus lradius
    lradius lwrist
    lwrist lhand lthumb
    lhand lfingers
    rclavicle rhumerus
    rhumerus rradius
    rradius rwrist
    rwrist rhand rthumb
    rhand rfingers
  end

#!OML:ASF F:\VICON\USERDATA\INSTALL\rory3\rory3.ASF
:FULLY-SPECIFIED
:DEGREES
170
root -2.73506 17.3318 37.9236 175.965 -9.92209 -178.624
lowerback 10.7689 -1.93736 2.74809
upperback 2.86049 -2.53309 2.80201
thorax -3.03191 -1.42172 1.70733
lowerneck -21.8408 3.38197 3.58004
upperneck 18.4942 5.16203 -7.98278
head 9.79117 1.60814 -2.64912
rclavicle 1.04362e-014 -9.54166e-015
rhumerus -17.4076 14.3109 -84.6133
rradius 82.0406
rwrist 6.24568
rhand -9.82323 9.69512
rfingers 7.12502
rthumb 16.1539 -19.6517
lclavicle 1.04362e-014 -9.54166e-015
lhumerus -30.925 -12.8203 97.7991
lradius 77.2109
lwrist 9.63442
lhand -12.812 20.0076
lfingers 7.12502
lthumb 13.2744 49.5648
rfemur -4.71693 4.33013 24.3897
rtibia 35.1954
rfoot -21.1742 -9.52363
rtoes 4.34942
lfemur -12.3525 -9.86003 -10.5373
ltibia 40.0948
lfoot -15.8349 -3.67349
ltoes -18.1521
171
root -2.78867 17.3295 37.9248 176.045 -9.96925 -178.727
lowerback 10.7389 -1.93597 2.50861
upperback 2.90028 -2.55698 2.69224
thorax -2.96946 -1.42946 1.72758
lowerneck -22.0216 3.40603 3.79511
upperneck 18.0974 5.14271 -8.1241
head 9.69227 1.60961 -2.73036
rclavicle -3.27001e-014 -8.74653e-015
rhumerus -16.4629 15.0323 -84.2262
rradius 84.03
rwrist 6.58876
rhand -9.21407 10.0137
rfingers 7.12502
rthumb 16.7404 -19.2845
lclavicle -3.27001e-014 -8.74653e-015
lhumerus -30.4097 -13.2714 97.7008
lradius 78.2664
lwrist 8.77556
lhand -13.0469 19.9303
lfingers 7.12502
lthumb 13.048 49.5022
rfemur -4.78926 4.30826 24.0811
rtibia 35.2619
rfoot -21.1108 -9.6306
rtoes 3.19564
lfemur -12.14 -10.0445 -11.0337
ltibia 39.7454
lfoot -16.3353 -2.82356
ltoes -18.157
172
root -2.84709 17.3341 37.9244 176.199 -10.0304 -178.825
lowerback 10.6076 -2.01753 2.20608
upperback 2.72503 -2.6749 2.67832
thorax -3.06685 -1.47746 1.89707
lowerneck -21.4221 3.47257 3.79644
upperneck 17.6101 5.22967 -8.20462
head 9.423 1.66497 -2.7416
rclavicle 1.54058e-014 -3.73715e-014
rhumerus -15.6312 16.2199 -83.6823
rradius 85.9269
rwrist 6.68445
rhand -9.07173 9.73393
rfingers 7.12502
rthumb 16.8774 -19.5527
lclavicle 1.54058e-014 -3.73715e-014
lhumerus -30.2061 -13.6088 97.7082
lradius 79.503
lwrist 8.27138
lhand -13.2258 20.506
lfingers 7.12502
lthumb 12.8755 50.0888
rfemur -4.91949 4.18493 23.7236
rtibia 35.2897
rfoot -21.1562 -9.60912
rtoes 1.83469
lfemur -11.9837 -10.1418 -11.5406
ltibia 39.4085
lfoot -16.786 -1.96776
ltoes -18.2854
173
root -2.9097 17.3339 37.9244 176.298 -9.95391 -178.701
lowerback 10.5027 -2.03471 2.22417
upperback 2.79871 -2.70739 2.65484
thorax -2.93381 -1.49517 1.85937
lowerneck -22.043 3.54229 3.79961
upperneck 17.5944 5.3059 -8.11423
head 9.52995 1.70258 -2.69518
rclavicle -3.77691e-015 3.33958e-014
rhumerus -14.122 16.9554 -83.0505
rradius 87.7281
rwrist 6.55917
rhand -8.36226 9.88088
rfingers 7.12502
rthumb 17.5602 -19.3461
lclavicle -3.77691e-015 3.33958e-014
lhumerus -29.0456 -14.109 97.444
lradius 80.5464
lwrist 8.31772
lhand -13.3392 20.6633
lfingers 7.12502
lthumb 12.7663 50.253
rfemur -5.01974 4.2191 23.5635
rtibia 35.2887
rfoot -21.4082 -9.09199
rtoes 4.23162
lfemur -11.8102 -10.0162 -11.7813
ltibia 39.1047
lfoot -17.2982 -1.28431
ltoes -17.4604
174
root -2.97549 17.3267 37.9244 176.46 -9.94028 -178.767
lowerback 10.622 -2.09243 2.03369
upperback 2.57591 -2.77077 2.60419
thorax -3.22494 -1.51608 1.93442
lowerneck -22.0908 3.58079 3.81091
upperneck 17.5822 5.33711 -8.02029
head 9.53302 1.72993 -2.65855
rclavicle 2.96189e-014 -2.3059e-014
rhumerus -12.9376 17.8156 -82.3499
rradius 89.6576
rwrist 6.26204
rhand -7.59959 9.93762
rfingers 7.12502
rthumb 18.2941 -19.2221
lclavicle 2.96189e-014 -2.3059e-014
lhumerus -28.1157 -14.5941 97.3505
lradius 81.6068
lwrist 8.76446
lhand -13.4551 21.0862
lfingers 7.12502
lthumb 12.6545 50.6828
rfemur -5.09342 4.24234 23.2292
rtibia 35.2581
rfoot -21.4238 -8.94575
rtoes 4.90438
lfemur -11.7262 -10.1646 -12.2093
ltibia 38.8514
lfoot -17.8426 -0.602682
ltoes -16.0698
175
root -3.04788 17.3262 37.9268 176.609 -9.92216 -178.927
lowerback 10.2583 -2.11801 1.8628
upperback 2.44263 -2.80842 2.42396
thorax -3.1645 -1.52125 1.8337
lowerneck -21.1108 3.50432 3.97034
upperneck 16.8265 5.16816 -8.08538
head 9.09119 1.69734 -2.72736
rclavicle 4.56211e-014 -1.90833e-014
rhumerus -11.6741 18.4214 -81.6536
rradius 91.5842
rwrist 6.0361
rhand -6.87413 10.0798
rfingers 7.12502
rthumb 18.9919 -19.013
lclavicle 4.56211e-014 -1.90833e-014
lhumerus -27.1225 -15.5045 97.0606
lradius 82.9739
lwrist 9.62596
lhand -13.2266 21.5264
lfingers 7.12502
lthumb 12.8748 51.1093
rfemur -5.17166 4.07599 22.7603
rtibia 35.2336
rfoot -21.1965 -9.05379
rtoes 1.80516
lfemur -11.6345 -10.3332 -12.755
ltibia 38.6397
lfoot -18.0997 -0.000634092
ltoes -15.6537
176
root -3.11113 17.3281 37.9526 176.417 -9.9843 -178.842
lowerback 10.6347 -2.14565 1.8619
upperback 2.61885 -2.85802 2.3409
thorax -3.1917 -1.55328 1.76734
lowerneck -21.763 3.50584 4.05606
upperneck 16.6552 5.12797 -8.06731
head 9.14537 1.68158 -2.73508
rclavicle -4.96962e-015 -4.77083e-015
rhumerus -9.31313 18.8993 -80.5653
rradius 93.2393
rwrist 5.94937
rhand -6.39353 10.2331
rfingers 7.12502
rthumb 19.454 -18.8137
lclavicle -4.96962e-015 -4.77083e-015
lhumerus -25.1948 -16.6391 96.5737
lradius 84.3379
lwrist 10.7392
lhand -13.9084 22.0561
lfingers 7.12502
lthumb 12.2174 51.6792
rfemur -5.03295 4.39009 22.597
rtibia 35.2344
rfoot -21.2911 -8.6342
rtoes 5.58238
lfemur -11.3817 -10.629 -12.9842
ltibia 38.4773
lfoot -18.1294 0.248411
ltoes -15.7108
177
root -3.17408 17.3449 37.9653 176.639 -9.76828 -178.869
lowerback 10.3863 -2.10277 1.51488
upperback 2.74942 -2.85619 2.42052
thorax -2.89894 -1.55497 2.02753
lowerneck -22.3194 3.54949 3.94874
upperneck 16.46 5.21094 -8.11657
head 9.18006 1.6998 -2.71764
rclavicle -7.7526e-015 -1.27222e-014
rhumerus -6.58006 19.6963 -79.0625
rradius 94.8617
rwrist 5.68639
rhand -6.1974 10.148
rfingers 7.12502
rthumb 19.6426 -18.8797
lclavicle -7.7526e-015 -1.27222e-014
lhumerus -22.9428 -17.3392 96.0979
lradius 85.7722
lwrist 10.9568
lhand -13.422 22.8263
lfingers 7.12502
lthumb 12.6864 52.421
rfemur -5.29965 4.89331 22.326
rtibia 35.2625
rfoot -21.5359 -8.30855
rtoes 9.42954
lfemur -11.5055 -10.3799 -13.1631
ltibia 38.3371
lfoot -18.0855 0.126613
ltoes -15.6972
178
root -3.23992 17.3592 37.9834 176.831 -9.71227 -178.874
lowerback 10.2208 -2.13493 1.2339
upperback 2.6995 -2.92262 2.46278
thorax -2.84277 -1.58381 2.23034
lowerneck -22.1314 3.59457 3.91334
upperneck 16.0781 5.26713 -8.13304
head 9.0187 1.7351 -2.70572
rclavicle 3.44891e-014 -3.81667e-014
rhumerus -3.99977 20.4132 -77.6273
rradius 96.2616
rwrist 5.34746
rhand -6.75397 10.0137
rfingers 7.12502
rthumb 19.1074 -19.0678
lclavicle 3.44891e-014 -3.81667e-014
lhumerus -20.7341 -18.0475 95.5946
lradius 87.0772
lwrist 11.6579
lhand -13.3296 22.6271
lfingers 7.12502
lthumb 12.7754 52.2162
rfemur -5.5653 4.97966 22.0639
rtibia 35.3438
rfoot -21.576 -8.33416
rtoes 9.11393
lfemur -11.7068 -10.016 -13.318
ltibia 38.2197
lfoot -17.9106 -0.177189
ltoes -15.9914
179
root -3.31022 17.3681 38.0117 176.913 -9.52709 -179.017
lowerback 10.3022 -2.1448 0.889293
upperback 2.4873 -2.94314 2.43291
thorax -3.09276 -1.58136 2.40607
lowerneck -21.2708 3.57117 3.9016
upperneck 15.5981 5.22358 -8.14228
head 8.70159 1.74326 -2.71238
rclavicle -2.38542e-014 6.12257e-014
rhumerus -1.60826 20.964 -76.4965
rradius 97.0538
rwrist 5.05262
rhand -7.90262 9.90202
rfingers 7.12502
rthumb 18.0025 -19.2848
lclavicle -2.38542e-014 6.12257e-014
lhumerus -18.4252 -18.5062 94.9681
lradius 88.4501
lwrist 11.8889
lhand -11.192 22.4976
lfingers 7.12502
lthumb 14.8355 51.9465
rfemur -5.75726 4.92848 21.5982
rtibia 35.4814
rfoot -21.622 -8.11132
rtoes 9.15751
lfemur -11.7659 -9.44114 -13.6424
ltibia 38.1092
lfoot -17.7545 -0.652505
ltoes -15.2795
180
root -3.38941 17.3738 38.0447 177.199 -9.38244 -179.519
lowerback 10.1838 -2.12056 0.309988
upperback 2.6183 -2.98002 2.32284
thorax -2.86767 -1.59875 2.61054
lowerneck -21.8693 3.58221 3.78426
upperneck 15.4917 5.25709 -8.14223
head 8.7683 1.74042 -2.6843
rclavicle -4.42296e-014 1.66979e-014
rhumerus 1.90547 21.1372 -74.9085
rradius 97.606
rwrist 4.36697
rhand -8.57319 9.51909
rfingers 7.12502
rthumb 17.3572 -19.7259
lclavicle -4.42296e-014 1.66979e-014
lhumerus -14.9455 -19.3292 94.082
lradius 89.4938
lwrist 14.0885
lhand -12.8044 23.5333
lfingers 7.12502
lthumb 13.2817 53.0901
rfemur -6.12818 4.87854 20.676
rtibia 35.5834
rfoot -21.5158 -7.87501
rtoes 8.97412
lfemur -12.0273 -9.28596 -14.4338
ltibia 38.0857
lfoot -17.6614 -0.708834
ltoes -14.6152
